<?xml version="1.0" encoding="UTF-8"?>
<svg version="1.1" xmlns="http://www.w3.org/2000/svg" width="1971" height="323" viewBox="92 220 1971 323">
<path d="M0 0 C0 -0.66 0 -1.32 0 -2 C4.89294909 -5.58816266 8.6473251 -7.42708329 14.80859375 -7.34765625 C19.97456788 -6.52809886 23.82157237 -3.20943888 27.375 0.4375 C30.29892078 5.04829815 31.24604469 9.4401577 31.31884766 14.85107422 C31.33868713 15.99328934 31.35852661 17.13550446 31.37896729 18.31233215 C31.39054871 19.54730942 31.40213013 20.78228668 31.4140625 22.0546875 C31.43370056 23.35987839 31.45333862 24.66506927 31.47357178 26.0098114 C31.52612421 29.5600088 31.56602812 33.11023376 31.60210419 36.66063309 C31.62504468 38.87932086 31.65041847 41.09796783 31.67657471 43.31661987 C31.76558398 50.90322033 31.84377165 58.48984642 31.91210938 66.07666016 C31.96374542 71.78239555 32.03113337 77.48758061 32.11914062 83.19287109 C32.21582713 89.47852103 32.28790128 95.76393545 32.34002686 102.05010986 C32.36291223 104.34851254 32.39419465 106.64685075 32.43487549 108.94500732 C32.78045649 129.30860365 30.9221537 150.37399333 22 169 C21.58363281 169.92167969 21.16726563 170.84335937 20.73828125 171.79296875 C14.67646459 184.10766219 5.42192174 193.25505218 -7 199 C-8.03769531 199.5053125 -9.07539062 200.010625 -10.14453125 200.53125 C-27.96392519 207.86265779 -50.0472394 205.70512878 -67.515625 198.5625 C-81.32437988 192.23602199 -94.07190429 182.85619142 -101 169 C-101.77566791 163.42638628 -102.28697614 158.18266262 -99.35546875 153.2109375 C-95.78794556 149.1470057 -92.4100241 145.60893288 -86.921875 144.62890625 C-80.6307557 144.43655188 -76.73736579 145.8537341 -72 150 C-69.67187535 152.50455014 -67.40093131 155.0461419 -65.14379883 157.61401367 C-61.19530336 162.01118626 -57.39568419 164.70482091 -52 167 C-51.3915625 167.31453125 -50.783125 167.6290625 -50.15625 167.953125 C-42.88984145 171.34001034 -34.21760527 171.3530038 -26.67578125 168.93359375 C-17.86069566 164.87445145 -11.43747412 158.93019199 -7.83984375 149.8203125 C-3.41487178 134.96063918 -3.33817562 119.37671472 -3 104 C-3.90621094 104.60328125 -4.81242187 105.2065625 -5.74609375 105.828125 C-17.62772422 113.65823388 -28.35184059 119.43338922 -42.9375 119.25 C-44.1287146 119.23767334 -44.1287146 119.23767334 -45.34399414 119.22509766 C-59.18210539 118.96048486 -69.52377351 114.16162249 -79.6484375 104.53515625 C-92.67623514 90.4902382 -96.74433312 73.98616879 -96.140625 55.30517578 C-95.58009913 46.11683328 -92.9098697 37.28838816 -89 29 C-88.60296875 28.12988281 -88.2059375 27.25976562 -87.796875 26.36328125 C-79.63121633 9.91464123 -65.02995282 -1.64417726 -47.90625 -7.74609375 C-31.25945907 -12.38798737 -14.67248114 -8.03864658 0 0 Z " fill="#0DAEAB" transform="translate(1305,318)"/>
<path d="M0 0 C4.76628346 3.28343972 8.73468333 7.1101167 9.8125 12.9375 C10.20721142 22.84809433 9.63901696 32.6984619 8.95690918 42.58395386 C6.47754788 79.77280144 6.13827003 117.81914661 9.8125 154.9375 C10.00523481 156.95442455 10.1979435 158.9713516 10.390625 160.98828125 C10.65578063 163.72675484 10.92187791 166.46513093 11.18945312 169.20336914 C12.98794277 187.88159089 12.98794277 187.88159089 7.8125 194.9375 C2.39288464 199.96999998 -1.56385634 200.47892148 -8.84765625 200.3984375 C-13.31768025 199.78152191 -15.51464541 198.34466803 -18.60546875 195.13671875 C-21.32370482 191.35803502 -22.80936225 187.35163427 -24.1875 182.9375 C-24.85345816 180.93726397 -25.5199627 178.93720958 -26.1875 176.9375 C-26.79335938 177.58976563 -27.39921875 178.24203125 -28.0234375 178.9140625 C-40.18618916 191.60074808 -55.74414379 199.75414942 -73.5625 200.1875 C-89.17672906 199.81363818 -101.26861088 195.0069711 -112.8125 184.5625 C-124.9875733 171.10584004 -130.49504742 156.76790908 -130.625 138.625 C-130.6350708 137.71854736 -130.6451416 136.81209473 -130.65551758 135.87817383 C-130.53364265 126.39353841 -127.72259063 118.25331152 -123.4375 109.875 C-123.08824463 109.18672119 -122.73898926 108.49844238 -122.37915039 107.78930664 C-119.53751697 102.33313887 -116.31732076 97.5155923 -112.1875 92.9375 C-111.68089844 92.339375 -111.17429687 91.74125 -110.65234375 91.125 C-101.39037999 80.93001286 -86.77380376 73.36718633 -72.9609375 72.6015625 C-57.96063127 72.29208606 -45.7591106 75.37361761 -33.1875 83.9375 C-32.5275 84.5975 -31.8675 85.2575 -31.1875 85.9375 C-31.14262451 84.92365234 -31.09774902 83.90980469 -31.05151367 82.86523438 C-30.27411149 65.5584691 -29.47313484 48.24849402 -27.93276978 30.98999023 C-27.7536928 28.97896989 -27.58510913 26.96702394 -27.41674805 24.95507812 C-26.52049681 15.47667476 -25.0504745 8.96007856 -18.1875 1.9375 C-12.42265793 -1.99307414 -6.48810184 -2.16270061 0 0 Z " fill="#F36366" transform="translate(391.1875,241.0625)"/>
<path d="M0 0 C-0.95729916 1.12588014 -1.91587895 2.2506715 -2.875 3.375 C-3.40867187 4.00148438 -3.94234375 4.62796875 -4.4921875 5.2734375 C-5.61432007 6.55836651 -6.79371975 7.79371975 -8 9 C-11.57870666 8.73973042 -14.97144322 8.21543 -18.48046875 7.48046875 C-27.81993977 5.56291118 -39.04863158 3.93119617 -48 8 C-49.49743888 9.98567734 -49.49743888 9.98567734 -50 12 C-49.45601562 11.84015625 -48.91203125 11.6803125 -48.3515625 11.515625 C-37.41930698 9.11851914 -25.78817622 11.96586576 -15 14 C-15 14.66 -15 15.32 -15 16 C-13.02 16.99 -13.02 16.99 -11 18 C-10.5875 17.50371094 -10.175 17.00742187 -9.75 16.49609375 C-6.62257196 12.81717728 -3.4058568 9.23643251 0.0625 5.875 C0.67222656 5.27429688 1.28195312 4.67359375 1.91015625 4.0546875 C4 3 4 3 6.94921875 3.61328125 C22.50441408 10.68382458 32.27399817 27.54360945 38.09375 42.8828125 C43.13258999 59.63228988 40.55669604 78.52061515 32.75 93.9375 C29.51352292 99.55580003 25.72261279 104.54231427 21 109 C20.67 109 20.34 109 20 109 C17.9580788 89.67250823 17.9580788 89.67250823 22.7734375 80.4453125 C27.80569057 70.41285893 26.32025015 54.15770965 23.20947266 43.74145508 C22.22000957 40.78974981 21.15915818 37.88961575 20 35 C15.52236234 35.77381993 12.56226875 37.23548989 9 40 C8.20207031 40.61617188 7.40414063 41.23234375 6.58203125 41.8671875 C5.75058594 42.55039062 4.91914062 43.23359375 4.0625 43.9375 C3.26972656 44.58589844 2.47695312 45.23429687 1.66015625 45.90234375 C-0.24753297 47.85749195 -0.24753297 47.85749195 0.0390625 50.3203125 C1.23299094 53.64972269 2.73237579 56.78012976 4.3125 59.9375 C7.32319066 66.14421374 9.43499745 72.1914608 11.17578125 78.87890625 C11.9432611 81.98247365 11.9432611 81.98247365 13.04296875 84.83984375 C18.596351 103.17733862 16.56700053 125.64344016 9 143 C8.6896582 143.71752441 8.37931641 144.43504883 8.05957031 145.17431641 C-2.77913089 169.58625351 -21.16901537 188.0322522 -46.07177734 197.79907227 C-48.04299715 198.5467528 -50.01973419 199.27668863 -52 200 C-53.3303125 200.50660156 -53.3303125 200.50660156 -54.6875 201.0234375 C-56.7776046 201.77736809 -58.85562642 202.419998 -61 203 C-61.72832031 203.20367188 -62.45664063 203.40734375 -63.20703125 203.6171875 C-77.57638194 206.92100671 -94.98460426 206.71379547 -108.6015625 200.88671875 C-113.88775493 198.93237725 -119.1391012 201.25828969 -124.10546875 203.28125 C-136.29291687 207.90494166 -151.1827308 205.40081454 -163 201 C-164.02480469 200.63777344 -165.04960938 200.27554688 -166.10546875 199.90234375 C-173.7813253 196.97300651 -180.37957351 192.8331996 -187 188 C-188.38058594 187.00033203 -188.38058594 187.00033203 -189.7890625 185.98046875 C-192 184 -192 184 -192.9375 180.375 C-192.958125 179.26125 -192.97875 178.1475 -193 177 C-192.01 176.01 -192.01 176.01 -191 175 C-186.46695147 175.23206733 -184.04154919 177.30180109 -180.625 180.125 C-167.03873452 190.66780749 -151.24001551 196.04706309 -134 195 C-130.92932255 194.48969956 -128.01602472 193.79108845 -125 193 C-125.86625 192.01 -126.7325 191.02 -127.625 190 C-140.87221592 174.43530423 -140.87221592 174.43530423 -140.484375 163.24609375 C-139.56723251 158.99321529 -137.06659424 155.98627868 -134 153 C-130.11537414 150.60946101 -126.49751673 150.53473965 -122 151 C-120.13671875 151.96875 -120.13671875 151.96875 -118.3125 153.125 C-116.6728125 154.053125 -116.6728125 154.053125 -115 155 C-112.69863938 154.51617907 -112.69863938 154.51617907 -111 153 C-106.93085883 150.28723922 -103.77891667 150.24340253 -99 151 C-93.76959638 153.18610998 -90.52076621 155.86844021 -88 161 C-86.3418944 169.27851276 -88.50502591 175.34058616 -92.9765625 182.28515625 C-95.67064685 185.8998061 -98.58953597 189.05601281 -102 192 C-92.73710261 198.17526493 -77.37373294 195.40725613 -66.9375 193.375 C-44.74299881 188.70158546 -24.68325186 177.38942437 -11.25 158.8125 C-3.86731171 147.47624094 2.06041254 136.71797694 3 123 C1.80375 123.495 0.6075 123.99 -0.625 124.5 C-4.24394237 125.8682927 -7.11065924 126.17678822 -11 126 C-13.26566343 126.43941523 -13.26566343 126.43941523 -15 127 C-15 124.69 -15 122.38 -15 120 C-15.66 120 -16.32 120 -17 120 C-17.185625 121.1446875 -17.185625 121.1446875 -17.375 122.3125 C-18 125 -18 125 -20 128 C-22.91493385 128.39875553 -25.51530029 128.5711635 -28.4375 128.5625 C-29.27917725 128.56008301 -30.12085449 128.55766602 -30.98803711 128.55517578 C-49.40274948 128.03192367 -65.82923408 119.57625218 -79 107 C-80.3125 104.7265625 -80.3125 104.7265625 -81 103 C-78.64365495 103.42759929 -76.29042279 103.86675308 -73.9375 104.3125 C-73.28072266 104.43044922 -72.62394531 104.54839844 -71.94726562 104.66992188 C-68.52122103 105.32812749 -65.80221974 106.09184279 -62.6015625 107.578125 C-57.39364457 109.63417937 -52.47842488 109.43512242 -46.93945312 109.43945312 C-41.36173123 109.56875283 -38.57296685 110.57186491 -34 114 C-30.82451976 115.2972649 -30.82451976 115.2972649 -27.625 116.25 C-26.56539062 116.58515625 -25.50578125 116.9203125 -24.4140625 117.265625 C-23.21910156 117.62914062 -23.21910156 117.62914062 -22 118 C-21.67 116.68 -21.34 115.36 -21 114 C-21.71027344 113.73445313 -22.42054688 113.46890625 -23.15234375 113.1953125 C-24.07144531 112.84210938 -24.99054688 112.48890625 -25.9375 112.125 C-26.85402344 111.77695312 -27.77054688 111.42890625 -28.71484375 111.0703125 C-31 110 -31 110 -32 108 C-31.01 107.67 -30.02 107.34 -29 107 C-29.66 106.67 -30.32 106.34 -31 106 C-31 105.34 -31 104.68 -31 104 C-32.98933381 103.91340469 -32.98933381 103.91340469 -34.80322266 104.48510742 C-47.76135835 107.52230548 -62.70117561 105.4618225 -75 101 C-76.85366493 100.58110684 -78.70779474 100.16426264 -80.5625 99.75 C-84.34673037 98.63150827 -85.89817121 97.33855704 -88 94 C-88.68268138 92.67479497 -89.3507041 91.34187818 -90 90 C-90.66 89.01 -91.32 88.02 -92 87 C-92.125 84.3125 -92.125 84.3125 -92 82 C-91.09459473 82.39324463 -91.09459473 82.39324463 -90.17089844 82.79443359 C-75.88918195 88.94978262 -63.92385303 93.05611682 -48.3125 93.25 C-47.13554565 93.2646228 -47.13554565 93.2646228 -45.93481445 93.27954102 C-40.39216524 93.2463166 -35.35756801 92.38380001 -30 91 C-29.13246094 90.79117188 -28.26492188 90.58234375 -27.37109375 90.3671875 C-26.73300781 90.20476562 -26.09492187 90.04234375 -25.4375 89.875 C-24.303125 89.58625 -23.16875 89.2975 -22 89 C-22 88.34 -22 87.68 -22 87 C-23.13308594 87.2165625 -23.13308594 87.2165625 -24.2890625 87.4375 C-39.14228104 89.94202397 -55.62939918 91.13619232 -70 86 C-70.73911621 85.74234863 -71.47823242 85.48469727 -72.23974609 85.21923828 C-94.23273736 77.52320036 -94.23273736 77.52320036 -96.05859375 73.8984375 C-99.03897377 54.0497211 -94.36292215 36.26413971 -82.75 19.8125 C-81.88375 18.9153125 -81.88375 18.9153125 -81 18 C-80.34 18 -79.68 18 -79 18 C-78.505 18.99 -78.505 18.99 -78 20 C-77.34 20 -76.68 20 -76 20 C-76.309375 18.5459375 -76.309375 18.5459375 -76.625 17.0625 C-76.66346757 13.92739341 -75.99970208 12.99965242 -73.9140625 10.56640625 C-67.02970297 4.25742574 -67.02970297 4.25742574 -62 3 C-62 10.92 -62 18.84 -62 27 C-61.34 27 -60.68 27 -60 27 C-59.09873165 24.29619494 -58.85564932 22.58619086 -58.7890625 19.796875 C-58.76070312 18.98089844 -58.73234375 18.16492188 -58.703125 17.32421875 C-58.65152214 15.62390462 -58.60711279 13.92335515 -58.5703125 12.22265625 C-58.36612991 6.80330988 -57.8948026 2.65891543 -55 -2 C-52.41046886 -3.42471181 -50.5915664 -4.20133882 -47.8125 -4.9375 C-47.10416016 -5.13786865 -46.39582031 -5.3382373 -45.66601562 -5.54467773 C-29.98277004 -9.60935622 -14.55652418 -6.53825861 0 0 Z " fill="#F26669" transform="translate(1797,317)"/>
<path d="M0 0 C12.60443548 10.54371032 22.54729123 25.3673457 24.4609375 42.05859375 C25.92102551 63.02128583 20.00121047 81.59129228 6.40234375 97.4609375 C-2.03688467 106.51955883 -12.68488659 112.63292346 -24.5390625 116.05859375 C-25.73144531 116.41695312 -26.92382812 116.7753125 -28.15234375 117.14453125 C-33.37873748 118.42303574 -38.56063035 118.35063641 -43.9140625 118.30859375 C-44.89117187 118.31632813 -45.86828125 118.3240625 -46.875 118.33203125 C-64.49291352 118.2851751 -80.37491732 112.33911815 -93.37109375 100.33203125 C-102.13129144 91.14566179 -108.54628941 80.47760194 -111.07421875 68.046875 C-111.47170974 66.00008939 -111.47170974 66.00008939 -112.5390625 64.05859375 C-114.33963228 44.39885524 -110.31446525 26.00654638 -97.73828125 10.46875 C-91.84528564 3.61229024 -85.54296532 -1.63543062 -77.5390625 -5.94140625 C-76.84167969 -6.33714844 -76.14429688 -6.73289062 -75.42578125 -7.140625 C-52.07837126 -19.72670373 -20.55589087 -15.9443787 0 0 Z " fill="#F36467" transform="translate(527.5390625,323.94140625)"/>
<path d="M0 0 C0.5775 -0.309375 1.155 -0.61875 1.75 -0.9375 C6.65674565 -3.25457434 11.71686566 -3.99700598 17.01953125 -2.38671875 C22.58009667 0.02675802 26.30425331 3.5616189 29 9 C29.82017664 13.42121028 29.76790977 17.74458066 29.69921875 22.23046875 C29.70581009 23.49788406 29.71240143 24.76529938 29.7191925 26.07112122 C29.73368521 29.42871896 29.72433441 32.7843094 29.70068359 36.14172363 C29.67037645 40.84466321 29.67124288 45.54732573 29.6879425 50.25032043 C29.69524186 52.74583919 29.68743332 55.24146704 29.6615448 57.73686218 C29.66558383 68.63087792 30.6326466 80.39822303 38 89 C39.78746299 90.69278804 41.60440154 92.26168642 43.546875 93.7734375 C45 95 45 95 46 97 C46.50238635 103.45373238 46.94441685 109.55942504 43 115 C37.24808312 120.1767252 33.62383719 121.40712629 26 121.2421875 C18.4016524 120.62877923 13.01598709 116.44244753 8 111 C4.37657496 106.04328004 1.33049329 101.27937244 1 95 C0.38125 95.639375 -0.2375 96.27875 -0.875 96.9375 C-1.91495644 97.96007555 -2.95693911 98.98059129 -4 100 C-5.02287109 101.03447266 -5.02287109 101.03447266 -6.06640625 102.08984375 C-17.60752948 113.21267256 -31.70841996 118.90722834 -47.6875 119.375 C-60.71532396 119.01442244 -71.17977234 113.4545642 -80.57421875 104.64453125 C-94.69984821 89.24509301 -96.95940052 70.88244647 -96.22216797 50.92822266 C-95.73174706 44.46436727 -93.72845256 38.8713536 -91 33 C-90.48050781 31.86304688 -89.96101563 30.72609375 -89.42578125 29.5546875 C-85.65165372 21.97124243 -81.02018995 15.92851193 -75 10 C-74.28972656 9.29101562 -73.57945312 8.58203125 -72.84765625 7.8515625 C-53.37775893 -10.52689392 -22.59739405 -16.24513121 0 0 Z " fill="#F36366" transform="translate(208,323)"/>
<path d="M0 0 C2.63434254 -0.32126128 4.62710097 -0.81355048 7 -2 C13.27551286 -2.81651654 17.86058515 -2.15831109 23.2109375 1.22265625 C28.827206 6.80213697 29.46139679 11.82200493 29.52870178 19.48075867 C29.52051926 20.69753799 29.51233673 21.91431732 29.50390625 23.16796875 C29.51332748 24.43917068 29.52274872 25.71037262 29.53245544 27.02009583 C29.55623504 30.39076621 29.56475611 33.76064855 29.56335449 37.13134766 C29.56139151 41.85483268 29.57116861 46.57795862 29.60325623 51.30134583 C29.61989134 53.80901268 29.62304298 56.3168193 29.61024475 58.82450867 C29.67413456 69.57019572 30.89526657 80.46638164 38 89 C39.92023244 90.80672116 41.91373492 92.37734938 44 94 C46.99478491 98.49217737 46.70475537 102.73590888 46 108 C43.94357134 113.132574 40.6641383 117.01016775 36 120 C31.0647423 121.50203495 25.8119969 122.08153727 20.91796875 120.19921875 C12.5350787 115.38773748 6.78034821 107.73971592 3 99 C2.33989562 97.66340566 1.67486982 96.32920012 1 95 C0.19949219 95.96099609 0.19949219 95.96099609 -0.6171875 96.94140625 C-10.05980328 107.90333564 -22.12625352 116.92140963 -37.03979492 118.17089844 C-51.69463409 119.03646858 -62.85859777 117.5825139 -74.4375 107.6875 C-85.1526302 97.2011 -92.8725441 85.08971809 -93.3984375 69.7578125 C-93.4063056 67.5468752 -93.39827188 65.33582882 -93.375 63.125 C-93.38660156 62.03058594 -93.39820313 60.93617188 -93.41015625 59.80859375 C-93.37199037 49.05853807 -91.25679458 39.34365408 -86.25 29.8125 C-85.89929443 29.13251953 -85.54858887 28.45253906 -85.18725586 27.75195312 C-77.00726587 12.28916908 -63.54278744 0.61817207 -47.0625 -5.5 C-31.9527166 -9.58422024 -13.30552478 -8.87034986 0 0 Z " fill="#F36366" transform="translate(888,323)"/>
<path d="M0 0 C0.92256592 0.00161133 1.84513184 0.00322266 2.7956543 0.00488281 C13.53366817 0.19654917 22.40964664 3.21264914 31.8125 8.375 C32.8025 7.715 33.7925 7.055 34.8125 6.375 C39.86154541 5.68357021 45.07260393 5.56906215 49.6875 7.9375 C54.9056588 12.00766386 57.72930142 15.82100194 58.8125 22.375 C58.88574596 24.05990835 58.91049519 25.74741612 58.89428711 27.43383789 C58.8877562 28.41578629 58.88122528 29.39773468 58.87449646 30.40943909 C58.86306107 31.46155075 58.85162567 32.51366241 58.83984375 33.59765625 C58.82718834 35.85090987 58.81482806 38.10416517 58.80273438 40.35742188 C58.77802456 43.88994635 58.75014376 47.42238239 58.71655273 50.95483398 C58.68606443 54.37744663 58.66848233 57.79994983 58.65234375 61.22265625 C58.63888412 62.2605983 58.6254245 63.29854034 58.61155701 64.36793518 C58.57757067 74.46714468 59.15365306 85.66107004 64.8125 94.375 C66.52007647 96.08257647 68.29735053 97.56401351 70.1953125 99.0546875 C73.84052554 102.03073099 74.72084512 104.57629322 75.25 109.1875 C75.04737819 113.84780163 73.53694473 117.60590621 70.8125 121.375 C65.34271325 125.81920174 60.38371463 126.86886534 53.46875 126.77734375 C46.29109808 125.69014059 40.85785412 119.98724412 36.38671875 114.609375 C33.69067678 110.78273478 31.71021707 106.6426771 29.8125 102.375 C29.20664063 103.02726562 28.60078125 103.67953125 27.9765625 104.3515625 C22.36911384 110.2005628 17.0807068 114.78150111 9.8125 118.375 C8.72453125 118.93445313 7.6365625 119.49390625 6.515625 120.0703125 C-4.34901998 125.26631781 -16.46501968 126.81623175 -28.15625 123.33203125 C-41.02116895 118.33988335 -52.43573857 107.74247949 -58.21875 95.125 C-62.05267072 86.14267146 -62.38694579 77.65585366 -62.4375 68 C-62.458125 67.02289063 -62.47875 66.04578125 -62.5 65.0390625 C-62.53588568 58.29255415 -61.43284824 52.7169221 -59.1875 46.375 C-58.89488281 45.39789063 -58.60226562 44.42078125 -58.30078125 43.4140625 C-55.79991059 35.87485242 -51.86919352 29.7549549 -47.1875 23.375 C-46.47980469 22.38693359 -46.47980469 22.38693359 -45.7578125 21.37890625 C-34.71144437 7.22778968 -17.56628204 -0.03204649 0 0 Z " fill="#0DAEAB" transform="translate(1411.1875,314.625)"/>
<path d="M0 0 C5.41666235 3.30371637 8.57879219 6.81264233 10.55078125 12.94140625 C11.27442506 18.53951531 11.41267764 24.13134981 11.5625 29.76953125 C11.61991332 31.40767484 11.6790904 33.04575747 11.73994446 34.68377686 C11.89525474 38.97581639 12.02921558 43.26824511 12.15783691 47.56115723 C12.36838867 54.44546493 12.61445519 61.32863009 12.85511208 68.21193695 C12.93638025 70.61146941 13.01029537 73.0111348 13.08268738 75.41094971 C13.1301748 76.8810649 13.17772298 78.35117812 13.2253418 79.82128906 C13.28385567 81.74367401 13.28385567 81.74367401 13.34355164 83.70489502 C13.51100621 86.3201999 13.8540456 88.44398721 14.55078125 90.94140625 C15.80367779 107.47964052 15.80367779 107.47964052 11.02734375 113.5234375 C7.36989942 117.03574515 4.00714373 118.10018909 -0.94921875 118.31640625 C-5.12799973 118.14112181 -7.96672068 117.39498443 -11.44921875 114.94140625 C-15.99939179 109.93621591 -18.44921875 104.78533646 -18.44921875 97.94140625 C-19.10921875 97.94140625 -19.76921875 97.94140625 -20.44921875 97.94140625 C-20.44921875 98.60140625 -20.44921875 99.26140625 -20.44921875 99.94140625 C-27.28135147 106.20727211 -34.19661729 110.08286625 -42.9296875 113.06640625 C-45.35754995 113.70440612 -45.35754995 113.70440612 -46.44921875 114.94140625 C-61.99440346 116.41541343 -74.95659832 114.76032932 -87.44921875 104.94140625 C-88.12726562 104.41289062 -88.8053125 103.884375 -89.50390625 103.33984375 C-100.59175767 93.54629405 -106.14558357 77.34447234 -107.44921875 62.94140625 C-107.72367322 57.35676078 -107.81486939 51.78224522 -107.82421875 46.19140625 C-107.82639404 45.49234161 -107.82856934 44.79327698 -107.83081055 44.07302856 C-107.82043068 14.58686057 -107.82043068 14.58686057 -98.94921875 3.94140625 C-94.45326175 0.6664325 -88.81880897 0.58202423 -83.44921875 0.94140625 C-78.0509315 2.43510709 -74.48764336 5.20146386 -71.44921875 9.94140625 C-70.50686682 12.76846203 -70.34085115 14.3974185 -70.38330078 17.31420898 C-70.39793869 18.63720253 -70.39793869 18.63720253 -70.41287231 19.98692322 C-70.43473099 21.41652122 -70.43473099 21.41652122 -70.45703125 22.875 C-70.47456821 24.90689587 -70.49147446 26.93879726 -70.5078125 28.97070312 C-70.53858672 32.16316171 -70.57387377 35.35534044 -70.62060547 38.54760742 C-71.59720349 58.93274286 -71.59720349 58.93274286 -63.44921875 76.94140625 C-59.645294 80.32357389 -56.97381704 80.40645633 -52.03515625 80.2109375 C-44.37219143 79.41222969 -40.18304979 76.47230636 -35.27734375 70.54296875 C-28.01789446 60.21221399 -27.37092551 50.06043361 -27.01171875 37.81640625 C-26.1209129 12.67386553 -26.1209129 12.67386553 -21.44921875 4.94140625 C-15.37246135 -0.57242113 -7.91160384 -3.41952893 0 0 Z " fill="#F7A51A" transform="translate(1050.44921875,323.05859375)"/>
<path d="M0 0 C5.57953705 2.0065858 8.35998628 5.06965585 11 10.3125 C11.68909819 11.8652377 12.3638194 13.4248413 13 15 C13.53367187 14.48050781 14.06734375 13.96101563 14.6171875 13.42578125 C25.43364544 3.30172633 35.14578193 0.47095808 49.69921875 0.72265625 C55.33068665 0.96985543 59.98218048 2.46343297 65 5 C65.84949219 5.42410156 66.69898438 5.84820312 67.57421875 6.28515625 C81.49129271 13.93635005 90.04017077 26.5206087 94.4375 41.5 C96.44634189 49.21107023 97.16750403 56.39467369 97.203125 64.33203125 C97.20882507 65.32321457 97.21452515 66.31439789 97.22039795 67.33561707 C97.22981843 69.42759137 97.23637016 71.51958032 97.24023438 73.61157227 C97.24993576 76.79144488 97.28098592 79.97066954 97.3125 83.15039062 C97.31903153 85.19010036 97.32428141 87.22981468 97.328125 89.26953125 C97.3404718 90.2104512 97.3528186 91.15137115 97.36553955 92.12080383 C97.33529034 101.20140327 95.51814004 108.48185996 89 115 C85.4268601 117.71065786 81.30181433 117.38667994 77 117 C71.99713281 115.98246769 68.58540435 114.68499892 65 111 C62.113186 105.50132741 61.5818209 101.12947698 61.62890625 94.98046875 C61.61149561 93.21679521 61.59391162 91.45312338 61.57617188 89.68945312 C61.56620885 86.9564246 61.56247717 84.22352424 61.56420898 81.49047852 C61.55095585 71.80597076 61.25816504 62.4840134 59.1875 52.9921875 C59.02903091 52.2578801 58.87056183 51.52357269 58.70729065 50.76701355 C57.30070213 44.96394723 54.8818004 40.52259843 50 37 C44.45031434 35.15010478 38.96740161 35.03485959 33.6875 37.625 C26.17177128 44.26680678 21.75002873 52.34431761 20.75961304 62.45367432 C20.473758 68.92771483 20.67897916 75.40083693 20.875 81.875 C20.9509203 84.76577425 21.01885852 87.65604222 21.06838989 90.5473938 C21.09995296 92.33085516 21.14668367 94.11414045 21.2116394 95.896698 C21.35183262 102.87935562 20.19757309 108.33977995 15.625 113.875 C10.82714934 117.75897434 7.14255087 118.4236242 1 118 C-4.90559288 117.15634387 -7.65564233 114.81152412 -11.51953125 110.55859375 C-15.02158187 104.50623714 -15.34344719 97.01104916 -15.81640625 90.15234375 C-15.87779282 89.3373793 -15.93917938 88.52241486 -16.00242615 87.68275452 C-16.1952673 85.101414 -16.37895354 82.51951616 -16.5625 79.9375 C-16.68887074 78.23498271 -16.81582 76.53250827 -16.94335938 74.83007812 C-17.25299712 70.66486445 -17.54959904 66.4988816 -17.83810425 62.33215332 C-17.94194096 60.83635659 -18.04721985 59.34065886 -18.15432739 57.84509277 C-18.84024299 48.23628134 -19.24114595 38.65444303 -19.29516602 29.0234375 C-19.30686724 27.57314439 -19.32759203 26.12289996 -19.35668945 24.67285156 C-19.39934698 22.52901305 -19.41550418 20.38639709 -19.42578125 18.2421875 C-19.44036377 16.9929248 -19.45494629 15.74366211 -19.4699707 14.45654297 C-18.75323146 9.18506547 -16.29795775 6.14343897 -12.375 2.6875 C-8.3096086 -0.20106758 -4.91854205 -0.72611166 0 0 Z " fill="#F7A41A" transform="translate(1097,322)"/>
<path d="M0 0 C4.62790418 -0.20917081 7.41137157 0.23704958 11.01171875 3.15625 C17.38426193 9.92594885 17.37341844 15.24154563 17.12255859 24.1953125 C16.87345487 28.60236348 15.96711249 32.85973362 15.01171875 37.15625 C15.90310547 37.11697388 15.90310547 37.11697388 16.8125 37.0769043 C19.54529617 36.97198065 22.27766733 36.90762971 25.01171875 36.84375 C25.94628906 36.80185547 26.88085938 36.75996094 27.84375 36.71679688 C35.50666331 36.58282986 40.00444032 38.57722583 45.66796875 43.63549805 C48.26896872 46.57910794 48.4804358 50.1486644 48.41015625 53.96484375 C47.63722091 58.21598812 45.25998128 61.40014846 42.01171875 64.15625 C35.49285167 68.03733031 29.42444019 68.7918068 21.94921875 68.90625 C20.98822266 68.93589844 20.02722656 68.96554687 19.03710938 68.99609375 C16.69523244 69.06600052 14.35430461 69.11908136 12.01171875 69.15625 C11.13019517 78.47057621 10.82538408 87.71178749 10.82641602 97.05908203 C10.82421438 99.28567221 10.80592835 101.511777 10.78710938 103.73828125 C10.74244114 115.07056569 10.79533427 126.07687107 17.76171875 135.53125 C21.05279255 137.90813663 23.01927403 137.68857596 27.01171875 137.15625 C30.65800277 135.75907575 33.92973727 134.07382361 36.9140625 131.54296875 C40.85367916 128.93856667 45.47011607 129.680966 50.01171875 130.15625 C54.15666793 131.53789973 57.39427529 133.6394755 60.0859375 137.1640625 C62.18045879 141.67126022 61.8582748 146.36115879 61.01171875 151.15625 C57.580527 159.80765955 49.59925884 165.19135742 41.38671875 168.96875 C27.82247355 173.74135479 14.46767447 173.56517918 1.01171875 168.15625 C-2.22304508 166.40545163 -5.09404841 164.41698123 -7.98828125 162.15625 C-8.87515625 161.57875 -9.76203125 161.00125 -10.67578125 160.40625 C-14.30873611 156.87148311 -16.59226364 152.59286573 -18.98828125 148.15625 C-19.31650879 147.5566748 -19.64473633 146.95709961 -19.98291016 146.33935547 C-31.6189349 124.27589169 -28.80298008 92.06623733 -24.98828125 68.15625 C-25.77332031 68.20265625 -26.55835938 68.2490625 -27.3671875 68.296875 C-34.2303621 68.53266505 -38.47597197 68.37844434 -43.98828125 64.15625 C-46.91517235 60.93666979 -47.88167552 58.26494964 -48.30078125 53.90625 C-47.92536937 49.4013074 -46.8023666 46.65861009 -43.98828125 43.15625 C-36.63109757 37.10701008 -29.1033862 36.85955581 -19.98828125 37.15625 C-19.95089844 36.36863281 -19.91351562 35.58101563 -19.875 34.76953125 C-18.55616818 12.91829819 -18.55616818 12.91829819 -11.98828125 5.15625 C-11.36953125 4.393125 -10.75078125 3.63 -10.11328125 2.84375 C-6.89863467 0.29094242 -3.98569394 0.3132176 0 0 Z " fill="#F36467" transform="translate(606.98828125,272.84375)"/>
<path d="M0 0 C4.49720448 2.1385308 7.0151409 5.4137834 8.9375 9.9375 C11.15371271 16.18801609 9.86867733 23.02220055 9 29.4375 C8.90460938 30.16904297 8.80921875 30.90058594 8.7109375 31.65429688 C8.47794062 33.436723 8.23953734 35.21844104 8 37 C9.12277344 36.97679687 10.24554687 36.95359375 11.40234375 36.9296875 C31.27182427 36.63458522 31.27182427 36.63458522 37.5 41.375 C41.2731899 45.3368494 41.42358388 49.3586002 41.3359375 54.6875 C40.74434966 58.75982558 38.87454241 61.16610682 36 64 C29.62675615 68.67998707 23.13238763 68.48737091 15.5 68.25 C14.39140625 68.23195313 13.2828125 68.21390625 12.140625 68.1953125 C9.42616704 68.1485115 6.71355284 68.08296375 4 68 C3.11763728 78.74591738 2.86567458 89.47018384 2.8125 100.25 C2.79960938 101.50377441 2.78671875 102.75754883 2.7734375 104.04931641 C2.63147871 120.39643686 2.63147871 120.39643686 9 135 C12.80644288 137.53762859 14.47357697 137.51942559 19 137 C22.76092247 135.14451643 26.08065399 132.68361626 29.4375 130.1875 C33.33831593 128.37980481 36.78321663 128.25627448 41 129 C45.33966909 130.75993513 48.24757666 132.96541791 51 136.75 C52.79569618 142.5860126 52.91385647 147.6454515 50.3125 153.25 C45.85825343 161.11501579 38.41457044 166.62326636 29.84838867 169.21850586 C28.77874878 169.51253296 28.77874878 169.51253296 27.6875 169.8125 C26.56275269 170.12876343 26.56275269 170.12876343 25.4152832 170.45141602 C19.81452633 171.94708988 14.79334529 172.68492752 9 172 C8.06027344 171.9278125 7.12054687 171.855625 6.15234375 171.78125 C-4.23746697 170.60150375 -13.40709576 165.66095256 -20.48046875 157.93359375 C-30.17717311 145.59459977 -34.34229253 130.89255546 -34.265625 115.36328125 C-34.26753845 114.48077194 -34.2694519 113.59826263 -34.27142334 112.68901062 C-34.27277423 110.83441887 -34.26915515 108.9798173 -34.26074219 107.12524414 C-34.25009176 104.3365266 -34.26064193 101.54846268 -34.2734375 98.75976562 C-34.28039051 88.33199383 -33.74260635 78.2918966 -32 68 C-32.93642334 68.03109863 -33.87284668 68.06219727 -34.83764648 68.09423828 C-46.39773606 68.42219626 -46.39773606 68.42219626 -51 65 C-55.09255202 60.57561944 -56.37047619 57.13712822 -56.28125 51.05859375 C-55.6745653 46.61799876 -52.81989449 43.84332005 -49.8125 40.75 C-43.14487967 36.60125846 -35.64216286 36.7128206 -28 37 C-27.83564453 35.83597656 -27.83564453 35.83597656 -27.66796875 34.6484375 C-27.14609381 31.09289927 -26.57715969 27.54697504 -26 24 C-25.81695313 22.77925781 -25.63390625 21.55851562 -25.4453125 20.30078125 C-24.08805723 12.5510212 -22.28399935 7.02719948 -16 2 C-11.10961117 -1.08217783 -5.56611504 -0.81597498 0 0 Z " fill="#F36467" transform="translate(733,273)"/>
<path d="M0 0 C7.93483284 7.0013231 7.93483284 7.0013231 8.25439453 11.83032227 C8.25608643 12.99905884 8.25608643 12.99905884 8.2578125 14.19140625 C8.25974609 15.46081055 8.25974609 15.46081055 8.26171875 16.75585938 C8.25785156 17.64080078 8.25398438 18.52574219 8.25 19.4375 C8.25580078 20.77071289 8.25580078 20.77071289 8.26171875 22.13085938 C8.26042969 22.97583984 8.25914063 23.82082031 8.2578125 24.69140625 C8.25668457 25.46943604 8.25555664 26.24746582 8.25439453 27.04907227 C8.125 28.875 8.125 28.875 7.125 29.875 C6.89424918 31.22247084 6.71346937 32.57877565 6.5625 33.9375 C6.418125 35.236875 6.27375 36.53625 6.125 37.875 C6.74955078 37.85405273 7.37410156 37.83310547 8.01757812 37.81152344 C10.8865506 37.72764156 13.75526408 37.67611489 16.625 37.625 C17.60726563 37.59148437 18.58953125 37.55796875 19.6015625 37.5234375 C27.41473853 37.41926182 32.59137147 38.95975647 38.625 43.9375 C40.95318513 48.49686254 40.74528576 52.85976267 40.125 57.875 C38.14403679 62.7752774 34.54623813 65.72542805 29.8059082 67.97607422 C26.8970482 68.95143371 24.66519218 69.10449935 21.60546875 69.0703125 C20.58388672 69.06386719 19.56230469 69.05742187 18.50976562 69.05078125 C16.92711914 69.02564453 16.92711914 69.02564453 15.3125 69 C14.23806641 68.99097656 13.16363281 68.98195313 12.05664062 68.97265625 C9.41253146 68.94915306 6.76888128 68.91629575 4.125 68.875 C4.03188635 76.15132502 3.96102727 83.42751936 3.91775131 90.70432186 C3.89696974 94.0841028 3.86882846 97.46347297 3.82324219 100.84301758 C3.77449341 104.7379015 3.75197715 108.63220944 3.734375 112.52734375 C3.71372986 113.7276976 3.69308472 114.92805145 3.67181396 116.16477966 C3.67010738 122.60703376 4.21676338 127.44903612 7.26373291 133.18019104 C8.125 134.875 8.125 134.875 8.125 136.875 C13.15712827 138.55237609 17.05124884 138.8730301 21.8359375 136.5703125 C26.22382006 134.05204333 26.22382006 134.05204333 30.125 130.875 C36.50199945 130.02380314 41.95847314 130.93304497 47.125 134.875 C50.23212161 138.25344772 51.38215589 141.77148499 51.6875 146.3125 C51.28646255 153.70662794 46.95446557 158.31220576 41.75 163.1875 C38.07589691 166.2968236 34.71007829 168.29106386 30.125 169.875 C28.91457031 170.38546875 27.70414063 170.8959375 26.45703125 171.421875 C22.04496287 173.07355161 18.05590127 173.37634429 13.375 173.3125 C12.5907666 173.30492676 11.8065332 173.29735352 10.99853516 173.28955078 C0.47354899 172.99389298 -8.02199348 169.92299121 -15.875 162.875 C-16.55304688 162.31167969 -17.23109375 161.74835938 -17.9296875 161.16796875 C-27.85941514 152.26868454 -31.68632908 139.09738828 -33 126.1875 C-33.08419189 125.3629834 -33.16838379 124.5384668 -33.25512695 123.68896484 C-34.90270707 106.02463573 -35.25855355 86.33299898 -31.875 68.875 C-32.66003906 68.92140625 -33.44507813 68.9678125 -34.25390625 69.015625 C-42.80682116 69.30946748 -46.75819012 68.35845452 -53.3125 62.8125 C-55.73911834 58.25045751 -55.60321433 53.92791574 -54.875 48.875 C-52.56185081 43.98179978 -49.61261056 41.4333097 -44.875 38.875 C-39.37780081 37.3408979 -33.54209341 37.78424584 -27.875 37.875 C-27.83761719 36.71484375 -27.80023437 35.5546875 -27.76171875 34.359375 C-26.81524655 10.0509443 -26.81524655 10.0509443 -19.47265625 2.1796875 C-13.97049648 -2.31351877 -6.50104459 -2.54388701 0 0 Z " fill="#0DAEAB" transform="translate(1535.875,270.125)"/>
<path d="M0 0 C3.84565727 2.17800776 7.10988993 4.80468353 9.09765625 8.859375 C11.65210364 18.22029297 9.45237237 28.78187743 7.71484375 38.12109375 C8.33939453 38.10014648 8.96394531 38.07919922 9.60742188 38.05761719 C12.47639435 37.97373531 15.34510783 37.92220864 18.21484375 37.87109375 C19.19710938 37.83757812 20.179375 37.8040625 21.19140625 37.76953125 C27.59741527 37.6841178 32.38296728 38.41244164 37.71484375 42.12109375 C41.32006596 45.95891094 42.06751343 49.75507428 42 54.9921875 C41.39821673 59.48495298 39.05923274 62.90274122 35.71484375 65.93359375 C31.57696855 68.39045715 28.58930545 69.42351908 23.71484375 69.74609375 C22.16796875 69.85824219 22.16796875 69.85824219 20.58984375 69.97265625 C17.21007088 70.10212336 13.85416073 70.13581958 10.47265625 70.13037109 C9.39387207 70.12903168 8.31508789 70.12769226 7.20361328 70.12631226 C6.38231934 70.12459015 5.56102539 70.12286804 4.71484375 70.12109375 C4.66379489 77.04041362 4.62896475 83.95968423 4.60498047 90.87915039 C4.59497311 93.22910375 4.58136308 95.57904482 4.56396484 97.92895508 C4.5394838 101.32245941 4.52830765 104.71579793 4.51953125 108.109375 C4.50920868 109.14628983 4.49888611 110.18320465 4.48825073 111.25154114 C4.48685229 120.51087379 4.66732842 129.70801045 10.71484375 137.12109375 C12.34593742 138.75218742 14.15671597 138.36981658 16.40234375 138.43359375 C22.23504398 138.3836705 25.22434197 136.31358677 29.54296875 132.51171875 C33.57341375 129.93107411 38.10883985 130.53949384 42.71484375 131.12109375 C47.66866775 133.2827624 49.90650956 136.22740331 52.015625 141.05078125 C53.39746548 145.14226424 53.43228462 148.26632727 51.8671875 152.3125 C46.48510577 163.0949078 37.62372556 167.81895995 26.69140625 171.87109375 C15.95568462 175.1325788 4.1203407 173.55936019 -5.91015625 168.90234375 C-17.5469281 162.51631042 -25.10281068 151.75433602 -28.87597656 139.14697266 C-31.93103483 126.95886735 -31.56068748 114.16257553 -31.59765625 101.68359375 C-31.60151337 100.86439453 -31.60537048 100.04519531 -31.60934448 99.20117188 C-31.63225239 89.30297673 -31.18197676 79.8657784 -29.28515625 70.12109375 C-29.9706958 70.15227295 -30.65623535 70.18345215 -31.36254883 70.21557617 C-37.1558797 70.43801486 -42.22755679 70.16689254 -47.28515625 67.12109375 C-50.31623279 64.29359698 -53.05996145 61.17368898 -53.5234375 56.94921875 C-53.69061181 51.14211105 -53.41617052 47.56987835 -49.28515625 43.12109375 C-42.1550655 37.75194551 -34.805113 37.96955302 -26.28515625 38.12109375 C-26.16398437 36.94933594 -26.0428125 35.77757812 -25.91796875 34.5703125 C-25.41005496 29.74949676 -24.85897191 24.93448032 -24.28515625 20.12109375 C-24.15238281 18.99960937 -24.01960938 17.878125 -23.8828125 16.72265625 C-22.82175327 9.50745346 -20.55436629 5.01667979 -15.09765625 0.18359375 C-10.08045117 -1.71179483 -5.05270998 -1.94334999 0 0 Z " fill="#0DAEAB" transform="translate(1639.28515625,269.87890625)"/>
<path d="M0 0 C-0.95729916 1.12588014 -1.91587895 2.2506715 -2.875 3.375 C-3.40867187 4.00148438 -3.94234375 4.62796875 -4.4921875 5.2734375 C-5.61432007 6.55836651 -6.79371975 7.79371975 -8 9 C-11.57870666 8.73973042 -14.97144322 8.21543 -18.48046875 7.48046875 C-27.81993977 5.56291118 -39.04863158 3.93119617 -48 8 C-49.49743888 9.98567734 -49.49743888 9.98567734 -50 12 C-49.18402344 11.76023437 -49.18402344 11.76023437 -48.3515625 11.515625 C-37.41930698 9.11851914 -25.78817622 11.96586576 -15 14 C-15 14.66 -15 15.32 -15 16 C-13.68 16.66 -12.36 17.32 -11 18 C-10.5875 17.50371094 -10.175 17.00742187 -9.75 16.49609375 C-6.62257196 12.81717728 -3.4058568 9.23643251 0.0625 5.875 C0.67222656 5.27429688 1.28195312 4.67359375 1.91015625 4.0546875 C4 3 4 3 6.94921875 3.61328125 C22.50441408 10.68382458 32.27399817 27.54360945 38.09375 42.8828125 C43.13258999 59.63228988 40.55669604 78.52061515 32.75 93.9375 C29.51352292 99.55580003 25.72261279 104.54231427 21 109 C20.67 109 20.34 109 20 109 C17.9580788 89.67250823 17.9580788 89.67250823 22.7734375 80.4453125 C27.80569057 70.41285893 26.32025015 54.15770965 23.20947266 43.74145508 C22.22000957 40.78974981 21.15915818 37.88961575 20 35 C15.52236234 35.77381993 12.56226875 37.23548989 9 40 C7.80310547 40.92425781 7.80310547 40.92425781 6.58203125 41.8671875 C5.75058594 42.55039062 4.91914062 43.23359375 4.0625 43.9375 C2.87333984 44.91009766 2.87333984 44.91009766 1.66015625 45.90234375 C-0.26725392 47.87313356 -0.26725392 47.87313356 0.08203125 50.4375 C1.37468505 54.04592934 3.17597551 57.25748096 5.0390625 60.59765625 C6.11210983 63.28027458 6.01634763 64.34892455 5 67 C1.535 67.99 1.535 67.99 -2 69 C-4.64749469 66.60540032 -6.2864241 64.02178526 -8.0625 60.9375 C-9.59239834 58.28645478 -10.83289375 56.16710625 -13 54 C-12.28997831 45.13228226 -4.95849834 37.52383306 1.21875 31.71484375 C3.17480744 29.91342742 3.17480744 29.91342742 5.1875 27.1875 C7.20640292 24.75089303 9.21771629 23.46842751 12 22 C11.01 20.02 11.01 20.02 10 18 C-2.28508018 23.64083152 -14.98061379 38.96122757 -21 51 C-19.02 51.495 -19.02 51.495 -17 52 C-21.33704293 61.2189405 -27.15661788 68.67797717 -36.625 72.9375 C-46.75264362 76.43811579 -58.33301459 77 -69 77 C-69 77.66 -69 78.32 -69 79 C-55.82454769 81.84874645 -42.70113988 79.72640089 -30.69140625 73.92578125 C-27.61194907 72.86651949 -26.05310676 72.93248015 -23 74 C-20.80840788 77.65265353 -20.93662143 80.83429975 -21 85 C-36.55905318 90.42870391 -54.30894378 91.60813591 -70 86 C-70.73911621 85.74234863 -71.47823242 85.48469727 -72.23974609 85.21923828 C-94.23273736 77.52320036 -94.23273736 77.52320036 -96.05859375 73.8984375 C-99.03897377 54.0497211 -94.36292215 36.26413971 -82.75 19.8125 C-82.1725 19.214375 -81.595 18.61625 -81 18 C-80.34 18 -79.68 18 -79 18 C-78.67 18.66 -78.34 19.32 -78 20 C-77.34 20 -76.68 20 -76 20 C-76.20625 19.030625 -76.4125 18.06125 -76.625 17.0625 C-76.66346757 13.92739341 -75.99970208 12.99965242 -73.9140625 10.56640625 C-67.02970297 4.25742574 -67.02970297 4.25742574 -62 3 C-62 10.92 -62 18.84 -62 27 C-61.34 27 -60.68 27 -60 27 C-59.09873165 24.29619494 -58.85564932 22.58619086 -58.7890625 19.796875 C-58.74652344 18.57291016 -58.74652344 18.57291016 -58.703125 17.32421875 C-58.65152214 15.62390462 -58.60711279 13.92335515 -58.5703125 12.22265625 C-58.36612991 6.80330988 -57.8948026 2.65891543 -55 -2 C-52.41046886 -3.42471181 -50.5915664 -4.20133882 -47.8125 -4.9375 C-47.10416016 -5.13786865 -46.39582031 -5.3382373 -45.66601562 -5.54467773 C-29.98277004 -9.60935622 -14.55652418 -6.53825861 0 0 Z " fill="#F36668" transform="translate(1797,317)"/>
<path d="M0 0 C3.87039967 0.94549306 6.2181541 2.97650735 8.33984375 6.28515625 C9.49543816 9.24061451 9.45109595 11.68822437 9.41015625 14.85546875 C9.40371094 15.94472656 9.39726563 17.03398437 9.390625 18.15625 C9.21640515 21.66900846 8.77274008 25.07083962 8.22265625 28.54296875 C9.38023438 28.4965625 10.5378125 28.45015625 11.73046875 28.40234375 C13.26950531 28.36480627 14.80856995 28.32840824 16.34765625 28.29296875 C17.10820313 28.25945312 17.86875 28.2259375 18.65234375 28.19140625 C24.02578561 28.0987607 26.93259897 29.02225305 31.22265625 32.54296875 C33.79665136 35.11696386 33.54925561 36.27866159 33.59765625 39.85546875 C33.5244979 43.58166752 33.36232419 45.28949731 31.53515625 48.60546875 C26.34305038 52.9556115 21.37752347 52.80068505 14.91015625 52.66796875 C14.07419922 52.65894531 13.23824219 52.64992188 12.37695312 52.640625 C10.32539656 52.61717864 8.27398848 52.58131141 6.22265625 52.54296875 C6.14794266 58.05644846 6.0937901 63.56962697 6.05786133 69.08349609 C6.0428676 70.95529318 6.02246575 72.82705569 5.99633789 74.69873047 C5.69937183 88.89598641 5.69937183 88.89598641 9.22265625 102.54296875 C15.82317036 103.04173332 15.82317036 103.04173332 21.78515625 100.54296875 C26.20899833 97.96909699 28.18079168 97.97372598 33.22265625 98.54296875 C36.14193229 99.93914425 37.94468621 101.26499871 40.22265625 103.54296875 C40.93589385 108.61856656 40.84423989 113.17030489 38.72265625 117.85546875 C33.18036163 123.81343547 26.57413781 129.03731695 18.24609375 129.82421875 C8.50844348 130.09787637 -0.20589661 128.77810306 -7.8984375 122.453125 C-19.40015207 110.76011372 -21.97716169 94.77913965 -21.96484375 79.04296875 C-21.96581055 77.74987793 -21.96581055 77.74987793 -21.96679688 76.43066406 C-21.90141879 68.35647085 -21.02458624 60.51641178 -19.77734375 52.54296875 C-20.66486328 52.59517578 -20.66486328 52.59517578 -21.5703125 52.6484375 C-26.47478226 52.81645359 -29.87336135 52.87283609 -33.77734375 49.54296875 C-36.11506889 46.64096512 -36.74209034 44.81995981 -37.21484375 41.10546875 C-36.69628647 36.88293087 -35.44383543 34.81894425 -32.77734375 31.54296875 C-29.25055276 29.19177476 -27.7485489 29.32853423 -23.58984375 29.41796875 C-22.50316406 29.43601562 -21.41648437 29.4540625 -20.296875 29.47265625 C-19.04970703 29.50746094 -19.04970703 29.50746094 -17.77734375 29.54296875 C-17.72835938 28.888125 -17.679375 28.23328125 -17.62890625 27.55859375 C-16.03988826 8.16161556 -16.03988826 8.16161556 -12.33984375 3.41796875 C-7.58540538 -0.0608886 -5.71291302 -0.7895896 0 0 Z " fill="#93B43F" transform="translate(2001.77734375,312.45703125)"/>
<path d="M0 0 C3.97654007 2.27844999 6.54330193 4.62990579 8 9 C8.0946189 10.75973297 8.13072007 12.52288258 8.1328125 14.28515625 C8.13482666 15.36079834 8.13684082 16.43644043 8.13891602 17.54467773 C8.13432373 18.70555908 8.12973145 19.86644043 8.125 21.0625 C8.12234131 22.25883057 8.11968262 23.45516113 8.11694336 24.68774414 C8.07334936 33.11021544 7.88191393 41.52112784 7.5625 49.9375 C7.52334473 50.97076416 7.48418945 52.00402832 7.44384766 53.06860352 C7.31819603 56.04741356 7.16711297 59.0232391 7 62 C6.94231445 63.07443359 6.88462891 64.14886719 6.82519531 65.25585938 C6.72029785 66.84430664 6.72029785 66.84430664 6.61328125 68.46484375 C6.55309814 69.41609131 6.49291504 70.36733887 6.4309082 71.34741211 C5.74872185 75.54681989 3.80387646 78.83956122 1 82 C-3.4629945 84.97532967 -7.76743754 84.61379032 -13 84 C-17.45552505 81.5865906 -19.18416757 78.65911067 -21 74 C-21.43292499 70.12077442 -21.37551397 66.27413291 -21.3125 62.375 C-21.3012207 61.22088623 -21.28994141 60.06677246 -21.27832031 58.87768555 C-21.21901849 54.91720822 -21.12067541 50.95898272 -21 47 C-20.97701843 46.24450867 -20.95403687 45.48901733 -20.93035889 44.71063232 C-20.77638693 39.87491558 -20.58621306 35.04193222 -20.36019897 30.20904541 C-20.28726789 28.62298104 -20.21966204 27.03666203 -20.15762329 25.45013428 C-19.41519143 7.15547428 -19.41519143 7.15547428 -12.875 1 C-8.50664015 -0.51942951 -4.55754629 -0.89308061 0 0 Z " fill="#92B33E" transform="translate(1937,355)"/>
<path d="M0 0 C-0.95729916 1.12588014 -1.91587895 2.2506715 -2.875 3.375 C-3.40867187 4.00148438 -3.94234375 4.62796875 -4.4921875 5.2734375 C-5.61432007 6.55836651 -6.79371975 7.79371975 -8 9 C-11.57870666 8.73973042 -14.97144322 8.21543 -18.48046875 7.48046875 C-27.81993977 5.56291118 -39.04863158 3.93119617 -48 8 C-49.49743888 9.98567734 -49.49743888 9.98567734 -50 12 C-49.45601562 11.84015625 -48.91203125 11.6803125 -48.3515625 11.515625 C-37.41930698 9.11851914 -25.78817622 11.96586576 -15 14 C-17.14219291 18.60644817 -19.61949935 22.2864409 -24 25 C-28.08865428 25.56170479 -31.87401899 25.04033797 -35.9375 24.4375 C-37.00291016 24.31052734 -38.06832031 24.18355469 -39.16601562 24.05273438 C-41.78364783 23.73580133 -44.39155057 23.38427908 -47 23 C-47 24.65 -47 26.3 -47 28 C-46.28714844 27.98839844 -45.57429688 27.97679687 -44.83984375 27.96484375 C-39.43674634 27.91393974 -34.32171525 28.05391729 -29 29 C-29.57575664 32.35250701 -30.59306263 33.93818629 -33.0625 36.25 C-33.88427734 37.03117187 -33.88427734 37.03117187 -34.72265625 37.828125 C-35.14417969 38.21484375 -35.56570313 38.6015625 -36 39 C-41.75 37.125 -41.75 37.125 -44 36 C-43.68804688 36.60328125 -43.37609375 37.2065625 -43.0546875 37.828125 C-42.66539063 38.62734375 -42.27609375 39.4265625 -41.875 40.25 C-41.48054688 41.03890625 -41.08609375 41.8278125 -40.6796875 42.640625 C-40 45 -40 45 -40.7578125 47.09375 C-41.16773438 47.7228125 -41.57765625 48.351875 -42 49 C-42.66 50.0725 -43.32 51.145 -44 52.25 C-44.99 53.61125 -44.99 53.61125 -46 55 C-46.66 55 -47.32 55 -48 55 C-54.26540454 41.65813531 -57.23139013 29.77474199 -57.3125 15 C-57.31813965 14.00814697 -57.3237793 13.01629395 -57.32958984 11.99438477 C-57.22818965 1.89475341 -57.22818965 1.89475341 -55 -2 C-52.47746311 -3.35248237 -50.5776986 -4.13474816 -47.875 -4.875 C-47.16214844 -5.07988037 -46.44929688 -5.28476074 -45.71484375 -5.49584961 C-30.02423135 -9.6339384 -14.575349 -6.54671403 0 0 Z " fill="#F4696B" transform="translate(1797,317)"/>
<path d="M0 0 C1.093125 0.61875 2.18625 1.2375 3.3125 1.875 C5.61386062 1.39117907 5.61386062 1.39117907 7.3125 -0.125 C11.38238156 -2.83825437 14.53307035 -2.88045824 19.3125 -2.125 C23.49052293 -0.40547356 26.50647023 1.60395305 28.9375 5.4375 C29.38044962 8.31667253 28.90717894 9.4829816 27.3125 11.875 C25.6625 11.875 24.0125 11.875 22.3125 11.875 C22.12816406 12.55304688 21.94382812 13.23109375 21.75390625 13.9296875 C18.98504656 22.81465061 14.12030915 29.6697939 6.3125 34.875 C2.23361852 34.59913362 0.09426501 33.22230486 -2.875 30.5 C-3.54917969 29.89414062 -4.22335937 29.28828125 -4.91796875 28.6640625 C-6.6875 26.875 -6.6875 26.875 -8.6875 23.875 C-9.3475 24.205 -10.0075 24.535 -10.6875 24.875 C-11.0175 23.885 -11.3475 22.895 -11.6875 21.875 C-14.3275 21.875 -16.9675 21.875 -19.6875 21.875 C-22.0299046 17.3365911 -22.6412782 12.86782155 -21.6875 7.875 C-19.6210606 3.82505523 -17.12980673 0.76257338 -13.25 -1.625 C-8.13340384 -2.62336023 -4.45752512 -2.82532642 0 0 Z " fill="#F3696C" transform="translate(1678.6875,470.125)"/>
<path d="M0 0 C0.02505615 0.6798999 0.0501123 1.3597998 0.07592773 2.06030273 C0.19305822 5.18617279 0.31524656 8.31182628 0.4375 11.4375 C0.47681641 12.50677734 0.51613281 13.57605469 0.55664062 14.67773438 C1.10703126 28.52217573 2.53183545 39.53533124 9.890625 51.5546875 C11 54 11 54 10.734375 56.2578125 C10 58 10 58 9 59 C6.73097824 59.09980173 4.45871075 59.12967809 2.1875 59.125 C0.32158203 59.12886719 0.32158203 59.12886719 -1.58203125 59.1328125 C-4.32601447 59.02618915 -6.39649509 58.71661322 -9 58 C-9.08040527 57.29617188 -9.16081055 56.59234375 -9.24365234 55.8671875 C-9.61990923 52.578026 -9.99731922 49.2889983 -10.375 46 C-10.57863159 44.22351074 -10.57863159 44.22351074 -10.78637695 42.41113281 C-11.68004805 34.65506122 -12.62893108 26.90974904 -13.66796875 19.171875 C-13.77753906 18.12515625 -13.88710937 17.0784375 -14 16 C-14.11730469 14.97003906 -14.23460937 13.94007813 -14.35546875 12.87890625 C-13.8609083 8.8735101 -12.18184578 7.7290984 -9.125 5.1875 C-8.22007813 4.41792969 -7.31515625 3.64835937 -6.3828125 2.85546875 C-2.71578947 0 -2.71578947 0 0 0 Z " fill="#F4676A" transform="translate(1735,320)"/>
<path d="M0 0 C0.60360352 0.26216309 1.20720703 0.52432617 1.82910156 0.79443359 C16.11081805 6.94978262 28.07614697 11.05611682 43.6875 11.25 C44.86445435 11.2646228 44.86445435 11.2646228 46.06518555 11.27954102 C52.31609626 11.24207105 58.01975066 10.10309356 64.02612305 8.43847656 C67.01314843 7.77493945 69.95380741 7.94141937 73 8 C74.76462683 11.08809695 75 12.23312136 75 16 C64.57709774 21.06990554 54.80097918 23.55290297 43.1875 23.4375 C42.13868652 23.43210205 41.08987305 23.4267041 40.00927734 23.42114258 C31.67692212 23.25835602 24.84543886 21.84620339 17 19 C15.14633507 18.58110684 13.29220526 18.16426264 11.4375 17.75 C7.65326963 16.63150827 6.10182879 15.33855704 4 12 C3.31731862 10.67479497 2.6492959 9.34187818 2 8 C1.34 7.01 0.68 6.02 0 5 C-0.125 2.3125 -0.125 2.3125 0 0 Z " fill="#F3686B" transform="translate(1705,399)"/>
<path d="M0 0 C5.23213887 9.53836553 8.60722638 18.35159037 11 29 C11.17950195 29.66298096 11.35900391 30.32596191 11.54394531 31.0090332 C13.22339685 37.54541713 13.23030868 43.8429961 13.125 50.5625 C13.11597656 51.66658203 13.10695313 52.77066406 13.09765625 53.90820312 C13.07430128 56.6057017 13.04155054 59.30273077 13 62 C8.07249108 64.6331817 4.48712123 65.52697231 -1 66 C-1.027193 64.41676312 -1.04648306 62.83338938 -1.0625 61.25 C-1.07410156 60.36828125 -1.08570313 59.4865625 -1.09765625 58.578125 C-1 56 -1 56 -0.5234375 54.13671875 C3.22561092 38.83276735 -2.16269012 21.61131133 -9 8 C-7.83141454 3.58534383 -4.60430531 0 0 0 Z " fill="#F4696C" transform="translate(1784,377)"/>
<path d="M0 0 C3.68470952 2.48503665 6.08223491 4.89582721 7.4375 9.1875 C8.071515 15.84465748 8.08196141 19.46788477 3.6875 24.8125 C-1.02853343 28.96710088 -3.80703553 30.1792523 -9.99609375 30.08984375 C-14.84195106 29.50964836 -17.49906484 26.69015373 -20.6875 23.25 C-23.00234877 18.35320452 -23.3205593 14.13114122 -22.3125 8.8125 C-17.59190655 -0.61345918 -9.89556735 -3.54746754 0 0 Z " fill="#93B441" transform="translate(1883.3125,409.1875)"/>
<path d="M0 0 C4.57972288 2.20808067 6.74874947 4.50393108 9 9 C9.3984375 11.9375 9.3984375 11.9375 9.375 15 C9.38273437 16.010625 9.39046875 17.02125 9.3984375 18.0625 C8.77597209 22.65165677 6.85095295 25.21286852 3.5 28.3125 C-1.40690148 30.6783275 -5.64499313 30.77412171 -11 30 C-15.44760059 27.97836337 -18.06799016 25.38791602 -20.30078125 20.98828125 C-21.85676541 16.56372294 -22.06929033 12.27005079 -20.046875 7.9765625 C-14.92374048 0.29186072 -8.97645829 -1.18631607 0 0 Z " fill="#92B33F" transform="translate(1939,310)"/>
<path d="M0 0 C2.35634505 0.42759929 4.70957721 0.86675308 7.0625 1.3125 C8.04766602 1.48942383 8.04766602 1.48942383 9.05273438 1.66992188 C12.47877897 2.32812749 15.19778026 3.09184279 18.3984375 4.578125 C23.60635543 6.63417937 28.52157512 6.43512242 34.06054688 6.43945312 C39.67483292 6.56960044 42.36543162 7.62435566 47 11 C49.73607123 12.11305329 52.53801131 12.93430162 55.375 13.75 C56.11105469 13.97042969 56.84710937 14.19085938 57.60546875 14.41796875 C59.40098788 14.95429264 61.20014099 15.47842566 63 16 C62.125 23.875 62.125 23.875 61 25 C38.67705116 26.92103808 21.45207319 20.07625244 4.25 6.1484375 C2.15106355 4.14424471 1.06204566 2.66718286 0 0 Z " fill="#F2696B" transform="translate(1716,420)"/>
<path d="M0 0 C0.66 0 1.32 0 2 0 C2.05847045 3.85410207 2.09375405 7.70808865 2.125 11.5625 C2.14175781 12.64853516 2.15851563 13.73457031 2.17578125 14.85351562 C2.21134858 20.70434215 1.8637142 25.46533358 0 31 C-0.26042136 32.80575185 -0.47555048 34.61919753 -0.625 36.4375 C-0.69976563 37.30246094 -0.77453125 38.16742188 -0.8515625 39.05859375 C-0.90054687 39.69925781 -0.94953125 40.33992188 -1 41 C-5.86896303 40.40380045 -10.32790951 39.43023178 -15 38 C-16.28712123 25.12878768 -8.97604504 12.04939714 -1.75 1.8125 C-0.88375 0.9153125 -0.88375 0.9153125 0 0 Z " fill="#F3686B" transform="translate(1716,335)"/>
<path d="M0 0 C3 1 3 1 3.93603516 2.70166016 C5.90527222 8.68597479 6.47140741 14.09302419 6.375 20.375 C6.36919922 21.29240967 6.36339844 22.20981934 6.35742188 23.1550293 C6.23100779 29.75957979 5.43597704 35.80855836 3 42 C2.34 42 1.68 42 1 42 C0.70867187 40.99582031 0.41734375 39.99164063 0.1171875 38.95703125 C-2.31321621 30.78878757 -5.04755073 23.26731532 -8.9609375 15.671875 C-10 13 -10 13 -9.94921875 10.9375 C-8.58930528 8.16170954 -6.66253124 6.38101584 -4.4375 4.25 C-3.61121094 3.45078125 -2.78492188 2.6515625 -1.93359375 1.828125 C-1.29550781 1.22484375 -0.65742187 0.6215625 0 0 Z " fill="#F36769" transform="translate(1812,357)"/>
<path d="M0 0 C0.33 0 0.66 0 1 0 C1.33 2.31 1.66 4.62 2 7 C5.89420207 6.58037832 5.89420207 6.58037832 8.66796875 3.953125 C9.10753906 3.30859375 9.54710937 2.6640625 10 2 C10.13277344 2.68707031 10.26554687 3.37414062 10.40234375 4.08203125 C10.57894531 4.98308594 10.75554687 5.88414062 10.9375 6.8125 C11.11152344 7.70582031 11.28554687 8.59914063 11.46484375 9.51953125 C11.97741153 12.11397171 11.97741153 12.11397171 13 15 C12.34 15.66 11.68 16.32 11 17 C10.67 16.01 10.34 15.02 10 14 C7.36 14 4.72 14 2 14 C-0.3992233 9.35150485 -0.19957409 5.08913926 0 0 Z " fill="#F27879" transform="translate(1657,478)"/>
<path d="M0 0 C0 2.97 0 5.94 0 9 C-5.77973941 8.56214095 -9.91538281 7.99862039 -15 5 C-10.37795091 2.49639008 -5.30049345 0 0 0 Z " fill="#F47A7B" transform="translate(1780,421)"/>
<path d="M0 0 C0.33 0 0.66 0 1 0 C1 4.95 1 9.9 1 15 C-2.96 15.66 -6.92 16.32 -11 17 C-10.34 15.02 -9.68 13.04 -9 11 C-6.03 11.33 -3.06 11.66 0 12 C0 8.04 0 4.08 0 0 Z " fill="#F45B5F" transform="translate(1733,321)"/>
<path d="M0 0 C0.33 0 0.66 0 1 0 C1.19448477 2.12437212 1.38038289 4.24953191 1.5625 6.375 C1.66691406 7.55835938 1.77132812 8.74171875 1.87890625 9.9609375 C2 13 2 13 1 15 C0.84479443 17.32273159 0.74980833 19.64959313 0.68359375 21.9765625 C0.6524221 23.00443375 0.6524221 23.00443375 0.62062073 24.05307007 C0.55519815 26.24361069 0.49627446 28.43427189 0.4375 30.625 C0.39430782 32.1093875 0.3506933 33.59376278 0.30664062 35.078125 C0.19952447 38.71862084 0.09823638 42.35925251 0 46 C-0.33 46 -0.66 46 -1 46 C-1.02502961 41.37760802 -1.04301321 36.75525692 -1.05493164 32.1328125 C-1.059909 30.5657482 -1.06669329 28.99868842 -1.07543945 27.43164062 C-1.12544049 18.23144947 -0.99146255 9.16124808 0 0 Z " fill="#F29898" transform="translate(581,347)"/>
<path d="M0 0 C1.21236328 0.02707031 1.21236328 0.02707031 2.44921875 0.0546875 C3.37154297 0.08949219 3.37154297 0.08949219 4.3125 0.125 C4.3125 0.785 4.3125 1.445 4.3125 2.125 C-1.13876259 4.36391142 -5.81940493 5.60106294 -11.6875 6.125 C-7.93877567 2.24700932 -5.55161573 -0.1609164 0 0 Z " fill="#16B2B1" transform="translate(1570.6875,400.875)"/>
<path d="M0 0 C0.66 0.66 1.32 1.32 2 2 C0.78763672 2.05607422 0.78763672 2.05607422 -0.44921875 2.11328125 C-1.51785156 2.17902344 -2.58648438 2.24476563 -3.6875 2.3125 C-4.74324219 2.37050781 -5.79898437 2.42851562 -6.88671875 2.48828125 C-10.23484234 3.03860018 -12.15765461 4.2229119 -15 6 C-15.66 5.67 -16.32 5.34 -17 5 C-11.94861682 -0.46095479 -7.3221433 -1.13660721 0 0 Z " fill="#2ABBBA" transform="translate(1682,401)"/>
<path d="M0 0 C1.48046875 1.12109375 1.48046875 1.12109375 3 3 C3.36328125 5.84765625 3.36328125 5.84765625 3.3125 9.0625 C3.30863281 10.12597656 3.30476562 11.18945312 3.30078125 12.28515625 C3 15 3 15 1 17 C-0.18681726 13.43954823 -0.09689832 10.56191663 -0.0625 6.8125 C-0.05347656 5.54019531 -0.04445313 4.26789063 -0.03515625 2.95703125 C-0.02355469 1.98121094 -0.01195312 1.00539063 0 0 Z " fill="#F57779" transform="translate(665,409)"/>
<path d="M0 0 C-1.04800781 0.59748047 -1.04800781 0.59748047 -2.1171875 1.20703125 C-3.02726562 1.73683594 -3.93734375 2.26664062 -4.875 2.8125 C-5.77992187 3.33457031 -6.68484375 3.85664063 -7.6171875 4.39453125 C-10.23273183 5.93733799 -10.23273183 5.93733799 -12 9 C-12.66 9 -13.32 9 -14 9 C-12.87028571 4.05749997 -10.11636997 2.38948207 -6.0703125 -0.1796875 C-3.59901215 -1.15888198 -2.4574558 -0.89261848 0 0 Z " fill="#21B0B0" transform="translate(1601,310)"/>
<path d="M0 0 C0.33 0 0.66 0 1 0 C1.38133299 1.9914056 1.71325582 3.99279077 2 6 C1.67 6.33 1.34 6.66 1 7 C0.84379445 8.41327947 0.74943827 9.8335459 0.68359375 11.25390625 C0.64169922 12.10791016 0.59980469 12.96191406 0.55664062 13.84179688 C0.51732422 14.73962891 0.47800781 15.63746094 0.4375 16.5625 C0.39431641 17.46419922 0.35113281 18.36589844 0.30664062 19.29492188 C0.20021858 21.52978485 0.09820012 23.76476308 0 26 C-0.33 26 -0.66 26 -1 26 C-1.02907084 22.41668375 -1.04682263 18.83339792 -1.0625 15.25 C-1.07087891 14.23421875 -1.07925781 13.2184375 -1.08789062 12.171875 C-1.09111328 11.1921875 -1.09433594 10.2125 -1.09765625 9.203125 C-1.10289307 8.30239258 -1.10812988 7.40166016 -1.11352539 6.47363281 C-1.00762312 4.16610196 -0.65132813 2.20865595 0 0 Z " fill="#F29495" transform="translate(262,365)"/>
<path d="M0 0 C2.0625 0.4375 2.0625 0.4375 4 1 C4 1.99 4 2.98 4 4 C1.5 6.1875 1.5 6.1875 -1 8 C-1.04241723 5.66705225 -1.04092937 3.33297433 -1 1 C-0.67 0.67 -0.34 0.34 0 0 Z " fill="#F36F72" transform="translate(1818,418)"/>
<path d="M0 0 C0.33 0 0.66 0 1 0 C1 2.31 1 4.62 1 7 C2.98 6.67 4.96 6.34 7 6 C7.33 6.99 7.66 7.98 8 9 C5.36 9.33 2.72 9.66 0 10 C0 6.7 0 3.4 0 0 Z " fill="#F47B7E" transform="translate(1783,433)"/>
<path d="M0 0 C0.33 0 0.66 0 1 0 C1.2493357 1.60115576 1.47378648 3.20620159 1.6875 4.8125 C1.87892578 6.15248047 1.87892578 6.15248047 2.07421875 7.51953125 C2 10 2 10 0.51953125 11.82421875 C-0.23263672 12.40623047 -0.23263672 12.40623047 -1 13 C-1.02696365 11.20841511 -1.04637917 9.41671527 -1.0625 7.625 C-1.07410156 6.62726563 -1.08570313 5.62953125 -1.09765625 4.6015625 C-1 2 -1 2 0 0 Z " fill="#9CBA4F" transform="translate(1862,416)"/>
<path d="M0 0 C0 0.33 0 0.66 0 1 C-1.98 1 -3.96 1 -6 1 C-6 1.66 -6 2.32 -6 3 C-7.65 3.66 -9.3 4.32 -11 5 C-11.66 4.34 -12.32 3.68 -13 3 C-8.51925805 -0.36055646 -5.39449293 -0.27429625 0 0 Z " fill="#9FBE54" transform="translate(2035,411)"/>
<path d="M0 0 C0.99 0 1.98 0 3 0 C2.125 3.875 2.125 3.875 1 5 C-0.51928038 5.07179964 -2.04167482 5.08392007 -3.5625 5.0625 C-4.38878906 5.05347656 -5.21507812 5.04445313 -6.06640625 5.03515625 C-6.70449219 5.02355469 -7.34257813 5.01195312 -8 5 C-8 4.67 -8 4.34 -8 4 C-6.02 4 -4.04 4 -2 4 C-1.34 2.68 -0.68 1.36 0 0 Z " fill="#F35D61" transform="translate(1743,374)"/>
<path d="M0 0 C-0.33 0.99 -0.66 1.98 -1 3 C-2.77734375 3.80078125 -2.77734375 3.80078125 -4.9375 4.3125 C-5.64777344 4.49425781 -6.35804688 4.67601562 -7.08984375 4.86328125 C-8.03537109 4.93095703 -8.03537109 4.93095703 -9 5 C-9.66 4.34 -10.32 3.68 -11 3 C-9.73160474 2.49384702 -8.46016898 1.99530901 -7.1875 1.5 C-6.12595703 1.08234375 -6.12595703 1.08234375 -5.04296875 0.65625 C-3 0 -3 0 0 0 Z " fill="#F56C70" transform="translate(576,311)"/>
<path d="M0 0 C1.58246707 -0.08153933 3.16616273 -0.13943557 4.75 -0.1875 C6.07257813 -0.23970703 6.07257813 -0.23970703 7.421875 -0.29296875 C10.44671583 0.05076316 11.75583602 1.00227459 14 3 C8.87160006 4.81975482 4.82315618 2.8599099 0 1 C0 0.67 0 0.34 0 0 Z " fill="#33C2BE" transform="translate(1627,269)"/>
<path d="M0 0 C0 0.33 0 0.66 0 1 C-2.31 1 -4.62 1 -7 1 C-7.33 1.99 -7.66 2.98 -8 4 C-9.65 4.33 -11.3 4.66 -13 5 C-12 2 -12 2 -10.4375 0.8125 C-6.88877617 -0.37040794 -3.73298379 -0.12443279 0 0 Z " fill="#F6BA52" transform="translate(1097,322)"/>
<path d="M0 0 C0.99 0.33 1.98 0.66 3 1 C3 3.31 3 5.62 3 8 C2.01 7.67 1.02 7.34 0 7 C0 4.69 0 2.38 0 0 Z " fill="#9ABA4C" transform="translate(1965,350)"/>
<path d="M0 0 C2.875 0.25 2.875 0.25 6 1 C7.375 3.0625 7.375 3.0625 8 5 C5 5 5 5 2.3125 2.5 C1.549375 1.675 0.78625 0.85 0 0 Z " fill="#F37679" transform="translate(1718,423)"/>
<path d="M0 0 C-0.66 0 -1.32 0 -2 0 C-2 0.66 -2 1.32 -2 2 C-5.96 1.67 -9.92 1.34 -14 1 C-14 0.67 -14 0.34 -14 0 C-12.41773035 -0.19627391 -10.83410729 -0.38165538 -9.25 -0.5625 C-8.36828125 -0.66691406 -7.4865625 -0.77132813 -6.578125 -0.87890625 C-4.11567549 -0.99456676 -2.33461936 -0.73638695 0 0 Z " fill="#F28184" transform="translate(857,408)"/>
<path d="M0 0 C2.97 0 5.94 0 9 0 C9 0.66 9 1.32 9 2 C5.30458414 2.95024979 2.69541586 2.95024979 -1 2 C-0.67 1.34 -0.34 0.68 0 0 Z " fill="#29BDBC" transform="translate(1566,401)"/>
<path d="M0 0 C0.66 0.33 1.32 0.66 2 1 C2.26252625 5.33168317 1.29243536 8.8803623 0 13 C-0.33 13 -0.66 13 -1 13 C-1.07654536 8.48382401 -1.10228696 4.40914783 0 0 Z " fill="#F9B842" transform="translate(945,339)"/>
<path d="M0 0 C0 4.38968456 -2.12805101 5.76905739 -5 9 C-5.99 8.67 -6.98 8.34 -8 8 C-5.36 5.36 -2.72 2.72 0 0 Z " fill="#F57378" transform="translate(818,331)"/>
<path d="M0 0 C0.66 0.66 1.32 1.32 2 2 C0.35 3.98 -1.3 5.96 -3 8 C-3.99 7.67 -4.98 7.34 -6 7 C-4.02 4.69 -2.04 2.38 0 0 Z " fill="#28B7B7" transform="translate(1370,331)"/>
<path d="M0 0 C0.99 0.66 1.98 1.32 3 2 C0.64031256 4.09749995 -0.54616994 4.96905704 -3.75 5.1875 C-4.86375 5.0946875 -4.86375 5.0946875 -6 5 C-2.25 1.125 -2.25 1.125 0 0 Z " fill="#F5AB27" transform="translate(1121,328)"/>
<path d="M0 0 C0.33 0 0.66 0 1 0 C1 2.31 1 4.62 1 7 C-0.98 7 -2.96 7 -5 7 C-5 6.34 -5 5.68 -5 5 C-3.68 4.67 -2.36 4.34 -1 4 C-0.67 2.68 -0.34 1.36 0 0 Z " fill="#F37E7F" transform="translate(1779,423)"/>
<path d="M0 0 C-2.62198774 2.15377564 -4.64404172 3.40072174 -8 4 C-8 3.01 -8 2.02 -8 1 C-5.29120665 -0.35439668 -2.99066732 -0.06501451 0 0 Z " fill="#F27372" transform="translate(1766,386)"/>
<path d="M0 0 C0.66 0 1.32 0 2 0 C1.3125 2.375 1.3125 2.375 0 5 C-2.625 6.3125 -2.625 6.3125 -5 7 C-4.21654285 5.82780457 -3.42297164 4.66236332 -2.625 3.5 C-2.18414063 2.8503125 -1.74328125 2.200625 -1.2890625 1.53125 C-0.65097656 0.77328125 -0.65097656 0.77328125 0 0 Z " fill="#F16C71" transform="translate(1770,352)"/>
<path d="M0 0 C0.8353125 0.556875 0.8353125 0.556875 1.6875 1.125 C-0.6225 1.785 -2.9325 2.445 -5.3125 3.125 C-5.9725 2.465 -6.6325 1.805 -7.3125 1.125 C-2.88173077 -1.09038462 -2.88173077 -1.09038462 0 0 Z " fill="#F46F70" transform="translate(767.3125,438.875)"/>
<path d="M0 0 C0.66 0 1.32 0 2 0 C2 0.66 2 1.32 2 2 C3.45833358 3.62514468 3.45833358 3.62514468 5 5 C3.35 5 1.7 5 0 5 C-0.5625 3.0625 -0.5625 3.0625 -1 1 C-0.67 0.67 -0.34 0.34 0 0 Z " fill="#F15A5C" transform="translate(1712,410)"/>
</svg>
